Coordinates
version=1
nRows=7
nColumns=42
inDegrees=yes

Units are S.I. units (second, meters, Newtons, ...)
If the header above contains a line with 'inDegrees', this indicates whether rotational values are in degrees (yes) or radians (no).

endheader
time	pelvis_tilt	pelvis_list	pelvis_rotation	pelvis_tx	pelvis_ty	pelvis_tz	hip_flexion_r	hip_adduction_r	hip_rotation_r	knee_angle_r	knee_adduction_r	knee_angle_r_beta	ankle_angle_r	subtalar_angle_r	mtp_angle_r	hip_flexion_l	hip_adduction_l	hip_rotation_l	knee_angle_l	knee_adduction_l	knee_angle_l_beta	ankle_angle_l	subtalar_angle_l	mtp_angle_l	lumbar_extension	lumbar_bending	lumbar_rotation	arm_flex_r	arm_add_r	arm_rot_r	elbow_flex_r	pro_sup_r	wrist_flex_r	wrist_dev_r	arm_flex_l	arm_add_l	arm_rot_l	elbow_flex_l	pro_sup_l	wrist_flex_l	wrist_dev_l
      0.37000000	     -1.20996337	     -6.30601881	     -2.06585475	     -0.55750940	      0.95053106	     -0.22398094	     -8.46058733	     10.10275884	     -4.93324041	     12.59934234	     -2.46398807	      0.21990001	     18.41697829	     -0.54536039	     -8.14717472	     31.35312854	     -8.13147164	    -13.52927723	     13.96917160	     -0.55219473	      0.24380804	      2.76734016	     -2.64915289	     -8.14717472	    -11.69331179	      7.06450991	      9.55034372	      0.46416900	    -12.65614433	      2.61331714	     45.71638135	     90.00000001	      0.00000000	      0.00000000	     -4.12177676	     -9.22907512	     -2.37652328	     33.82726529	     90.00000001	      0.00000000	      0.00000000
      0.38000000	     -0.68624078	     -6.21441818	     -2.17678103	     -0.54241234	      0.94834200	     -0.22379035	    -10.10880108	      9.83170570	     -4.95256012	     12.51738108	     -2.31675895	      0.21846951	     18.75178528	     -0.17502590	     -8.12028560	     30.90274966	     -7.98304198	    -14.16678623	     12.87360748	     -0.59919415	      0.22468684	      3.34889866	     -0.16752300	     -8.12028560	    -12.23374353	      6.75961516	      9.73662660	      0.75052505	    -12.57063106	      2.54795322	     46.16171206	     90.00000001	      0.00000000	      0.00000000	     -4.05501001	     -8.97232297	     -4.01212629	     32.27326863	     90.00000001	      0.00000000	      0.00000000
      0.39000000	     -0.83361565	     -6.36763386	     -2.34701951	     -0.52790841	      0.94530704	     -0.22318838	    -10.79657211	      9.99270756	     -4.90263300	     12.85050091	     -2.43488182	      0.22428355	     19.17763062	     -0.12091463	     -8.11179137	     31.21406452	     -8.10372616	    -13.79577354	     12.23790306	     -0.50150839	      0.21359170	      3.37161474	      0.74830805	     -8.11179137	    -12.07606971	      6.70818216	     10.00520211	      0.97585466	    -12.49033620	      2.57364572	     46.37781123	     90.00000001	      0.00000000	      0.00000000	     -4.14828200	     -9.03863102	     -4.23023996	     30.97473375	     90.00000001	      0.00000000	      0.00000000
      0.40000000	     -0.84760325	     -6.35252942	     -2.51437221	     -0.51314436	      0.94264325	     -0.22282303	    -11.56829992	      9.90230683	     -4.85087585	     13.32192014	     -2.49231814	      0.23251137	     19.40006940	     -0.04705064	     -8.10280816	     31.39463284	     -8.00316332	    -13.51289148	     12.14334637	     -0.58649976	      0.21194138	      3.45150490	      1.31306578	     -8.10280816	    -12.05060377	      6.47581566	     10.24245131	      1.16775984	    -12.35293728	      2.45376812	     46.53001294	     90.00000001	      0.00000000	      0.00000000	     -4.07891341	     -9.02825051	     -4.74691938	     29.39081331	     90.00000001	      0.00000000	      0.00000000
      0.41000000	     -0.85581442	     -6.23157275	     -2.67314547	     -0.49820083	      0.94017985	     -0.22241626	    -12.27800612	      9.73719767	     -4.67841714	     13.93586354	     -2.63990247	      0.24322670	     19.39202966	      0.03166107	     -8.09695813	     31.59141740	     -7.78682538	    -13.19820798	     12.57276896	     -0.76046578	      0.21943621	      3.40927755	      1.43166824	     -8.09695813	    -12.02574468	      6.08976476	     10.35415142	      1.36881966	    -12.12957576	      2.36344521	     46.61507968	     90.00000001	      0.00000000	      0.00000000	     -4.26132571	     -9.11697837	     -5.13419393	     28.33565232	     90.00000001	      0.00000000	      0.00000000
      0.42000000	     -0.82178373	     -5.80899151	     -3.00164131	     -0.48283653	      0.93815651	     -0.22227131	    -12.84660064	      9.06786857	     -4.77153205	     14.91240584	     -2.68804975	      0.26027058	     19.44183063	      0.11858684	     -8.07959331	     31.62705089	     -7.28462606	    -13.32063097	     13.27916661	     -1.12696329	      0.23176518	      3.18450935	      1.27000191	     -8.07959331	    -11.99038804	      5.37332534	     10.65900470	      1.44337853	    -11.82340728	      1.94606649	     46.51285275	     90.00000001	      0.00000000	      0.00000000	     -3.94348748	     -8.87547129	     -6.91793983	     26.32502739	     90.00000001	      0.00000000	      0.00000000
      0.43000000	     -0.70923275	     -5.55696350	     -3.08181118	     -0.46744850	      0.93641461	     -0.22223803	    -13.46637397	      8.70154303	     -4.66299791	     15.94373262	     -2.81260479	      0.27827063	     19.12724941	      0.08549932	     -8.07262213	     31.71996186	     -6.85976410	    -13.01752213	     14.54536503	     -1.48047355	      0.25386451	      2.95769557	      0.82081638	     -8.07262213	    -12.05816327	      4.84827103	     10.60311251	      1.62199087	    -11.55045180	      1.88518904	     46.28494696	     90.00000001	      0.00000000	      0.00000000	     -4.08708566	     -8.95506926	     -7.34708556	     25.23349027	     90.00000001	      0.00000000	      0.00000000
